<?xml version="1.0" encoding="UTF-8" standalone="no"?><svg xmlns="http://www.w3.org/2000/svg" xmlns:xlink="http://www.w3.org/1999/xlink" contentScriptType="application/ecmascript" contentStyleType="text/css" height="432px" preserveAspectRatio="none" style="width:438px;height:432px;" version="1.1" viewBox="0 0 438 432" width="438px" zoomAndPan="magnify"><defs><filter height="300%" id="f1rx24sbv863o0" width="300%" x="-1" y="-1"><feGaussianBlur result="blurOut" stdDeviation="2.0"/><feColorMatrix in="blurOut" result="blurOut2" type="matrix" values="0 0 0 0 0 0 0 0 0 0 0 0 0 0 0 0 0 0 .4 0"/><feOffset dx="4.0" dy="4.0" in="blurOut2" result="blurOut3"/><feBlend in="SourceGraphic" in2="blurOut3" mode="normal"/></filter></defs><g><rect fill="#FEFECE" filter="url(#f1rx24sbv863o0)" height="40.2719" rx="12.5" ry="12.5" style="stroke: #A80036; stroke-width: 1.5;" width="76" x="10" y="200.8157"/><text fill="#000000" font-family="sans-serif" font-size="14" lengthAdjust="spacingAndGlyphs" textLength="56" x="20" y="227.0557">编程入门</text><rect fill="#FEFECE" filter="url(#f1rx24sbv863o0)" height="40.2719" rx="12.5" ry="12.5" style="stroke: #A80036; stroke-width: 1.5;" width="95" x="136" y="80.2719"/><text fill="#000000" font-family="sans-serif" font-size="14" lengthAdjust="spacingAndGlyphs" textLength="75" x="146" y="106.5118">HTML(结构)</text><rect fill="#FEFECE" filter="url(#f1rx24sbv863o0)" height="40.2719" rx="12.5" ry="12.5" style="stroke: #A80036; stroke-width: 1.5;" width="76" x="281" y="20"/><text fill="#000000" font-family="sans-serif" font-size="14" lengthAdjust="spacingAndGlyphs" textLength="56" x="291" y="46.2399">文档结构</text><path d="M231,100.4079 L241,100.4079 C256,100.4079 256,40.136 271,40.136 L281,40.136 " fill="none" style="stroke: #A80036; stroke-width: 1.0;"/><rect fill="#FEFECE" filter="url(#f1rx24sbv863o0)" height="40.2719" rx="12.5" ry="12.5" style="stroke: #A80036; stroke-width: 1.5;" width="146" x="281" y="80.2719"/><text fill="#000000" font-family="sans-serif" font-size="14" lengthAdjust="spacingAndGlyphs" textLength="126" x="291" y="106.5118">常用行元素和快元素</text><path d="M231,100.4079 L241,100.4079 C256,100.4079 256,100.4079 271,100.4079 L281,100.4079 " fill="none" style="stroke: #A80036; stroke-width: 1.0;"/><rect fill="#FEFECE" filter="url(#f1rx24sbv863o0)" height="40.2719" rx="12.5" ry="12.5" style="stroke: #A80036; stroke-width: 1.5;" width="90" x="281" y="140.5438"/><text fill="#000000" font-family="sans-serif" font-size="14" lengthAdjust="spacingAndGlyphs" textLength="70" x="291" y="166.7838">表格和表单</text><path d="M231,100.4079 L241,100.4079 C256,100.4079 256,160.6798 271,160.6798 L281,160.6798 " fill="none" style="stroke: #A80036; stroke-width: 1.0;"/><path d="M86,220.9517 L96,220.9517 C111,220.9517 111,100.4079 126,100.4079 L136,100.4079 " fill="none" style="stroke: #A80036; stroke-width: 1.0;"/><rect fill="#FEFECE" filter="url(#f1rx24sbv863o0)" height="40.2719" rx="12.5" ry="12.5" style="stroke: #A80036; stroke-width: 1.5;" width="83" x="136" y="140.5438"/><text fill="#000000" font-family="sans-serif" font-size="14" lengthAdjust="spacingAndGlyphs" textLength="63" x="146" y="166.7838">CSS(样式)</text><path d="M86,220.9517 L96,220.9517 C111,220.9517 111,160.6798 126,160.6798 L136,160.6798 " fill="none" style="stroke: #A80036; stroke-width: 1.0;"/><rect fill="#FEFECE" filter="url(#f1rx24sbv863o0)" height="40.2719" rx="12.5" ry="12.5" style="stroke: #A80036; stroke-width: 1.5;" width="127" x="136" y="200.8157"/><text fill="#000000" font-family="sans-serif" font-size="14" lengthAdjust="spacingAndGlyphs" textLength="107" x="146" y="227.0557">JavaScript(行为)</text><path d="M86,220.9517 L96,220.9517 C111,220.9517 111,220.9517 126,220.9517 L136,220.9517 " fill="none" style="stroke: #A80036; stroke-width: 1.0;"/><rect fill="#FEFECE" filter="url(#f1rx24sbv863o0)" height="40.2719" rx="12.5" ry="12.5" style="stroke: #A80036; stroke-width: 1.5;" width="136" x="136" y="261.0876"/><text fill="#000000" font-family="sans-serif" font-size="14" lengthAdjust="spacingAndGlyphs" textLength="116" x="146" y="287.3276">Node.js(服务器侧)</text><path d="M86,220.9517 L96,220.9517 C111,220.9517 111,281.2236 126,281.2236 L136,281.2236 " fill="none" style="stroke: #A80036; stroke-width: 1.0;"/><rect fill="#FEFECE" filter="url(#f1rx24sbv863o0)" height="40.2719" rx="12.5" ry="12.5" style="stroke: #A80036; stroke-width: 1.5;" width="110" x="136" y="321.3596"/><text fill="#000000" font-family="sans-serif" font-size="14" lengthAdjust="spacingAndGlyphs" textLength="90" x="146" y="347.5995">Mysql(数据库)</text><path d="M86,220.9517 L96,220.9517 C111,220.9517 111,341.4955 126,341.4955 L136,341.4955 " fill="none" style="stroke: #A80036; stroke-width: 1.0;"/><rect fill="#FEFECE" filter="url(#f1rx24sbv863o0)" height="40.2719" rx="12.5" ry="12.5" style="stroke: #A80036; stroke-width: 1.5;" width="76" x="136" y="381.6315"/><text fill="#000000" font-family="sans-serif" font-size="14" lengthAdjust="spacingAndGlyphs" textLength="56" x="146" y="407.8714">项目部署</text><path d="M86,220.9517 L96,220.9517 C111,220.9517 111,401.7674 126,401.7674 L136,401.7674 " fill="none" style="stroke: #A80036; stroke-width: 1.0;"/><!--MD5=[552768951e1813e6218a541428dae1d9]
@startmindmap
* 编程入门
** HTML(结构)
*** 文档结构
*** 常用行元素和快元素
*** 表格和表单
** CSS(样式)
** JavaScript(行为)
** Node.js(服务器侧)
** Mysql(数据库)
** 项目部署
@endmindmap

PlantUML version 1.2020.06(Sun Apr 05 20:38:32 CST 2020)
(GPL source distribution)
Java Runtime: OpenJDK Runtime Environment
JVM: OpenJDK 64-Bit Server VM
Java Version: 11.0.8+10-post-Ubuntu-0ubuntu120.04
Operating System: Linux
Default Encoding: UTF-8
Language: en
Country: US
--></g></svg>